<mxfile host="app.diagrams.net" agent="Mozilla/5.0 (Macintosh; Intel Mac OS X 10_15_7) AppleWebKit/537.36 (KHTML, like Gecko) Chrome/138.0.0.0 Safari/537.36" version="27.2.0">
  <diagram id="Ht1M8jgEwFfnCIfOTk4-" name="Page-1">
    <mxGraphModel dx="1234" dy="824" grid="1" gridSize="10" guides="1" tooltips="1" connect="1" arrows="1" fold="1" page="1" pageScale="1" pageWidth="1169" pageHeight="827" math="0" shadow="0">
      <root>
        <mxCell id="0" />
        <mxCell id="1" parent="0" />
        <mxCell id="-SwOJ4ZzwDQcredPTqo0-1" value="AWS Cloud" style="points=[[0,0],[0.25,0],[0.5,0],[0.75,0],[1,0],[1,0.25],[1,0.5],[1,0.75],[1,1],[0.75,1],[0.5,1],[0.25,1],[0,1],[0,0.75],[0,0.5],[0,0.25]];outlineConnect=0;gradientColor=none;html=1;whiteSpace=wrap;fontSize=12;fontStyle=0;container=1;pointerEvents=0;collapsible=0;recursiveResize=0;shape=mxgraph.aws4.group;grIcon=mxgraph.aws4.group_aws_cloud_alt;strokeColor=#232F3E;fillColor=none;verticalAlign=top;align=left;spacingLeft=30;fontColor=#232F3E;dashed=0;" vertex="1" parent="1">
          <mxGeometry x="120" y="40" width="660" height="520" as="geometry" />
        </mxCell>
        <mxCell id="-SwOJ4ZzwDQcredPTqo0-8" style="edgeStyle=orthogonalEdgeStyle;rounded=0;orthogonalLoop=1;jettySize=auto;html=1;" edge="1" parent="-SwOJ4ZzwDQcredPTqo0-1" target="-SwOJ4ZzwDQcredPTqo0-39">
          <mxGeometry relative="1" as="geometry">
            <mxPoint x="160" y="286" as="sourcePoint" />
            <mxPoint x="276.9642105263158" y="286" as="targetPoint" />
          </mxGeometry>
        </mxCell>
        <mxCell id="-SwOJ4ZzwDQcredPTqo0-9" value="SQS" style="sketch=0;points=[[0,0,0],[0.25,0,0],[0.5,0,0],[0.75,0,0],[1,0,0],[0,1,0],[0.25,1,0],[0.5,1,0],[0.75,1,0],[1,1,0],[0,0.25,0],[0,0.5,0],[0,0.75,0],[1,0.25,0],[1,0.5,0],[1,0.75,0]];outlineConnect=0;fontColor=#232F3E;fillColor=#E7157B;strokeColor=#ffffff;dashed=0;verticalLabelPosition=bottom;verticalAlign=top;align=center;html=1;fontSize=12;fontStyle=0;aspect=fixed;shape=mxgraph.aws4.resourceIcon;resIcon=mxgraph.aws4.sqs;" vertex="1" parent="-SwOJ4ZzwDQcredPTqo0-1">
          <mxGeometry x="315" y="70" width="78" height="78" as="geometry" />
        </mxCell>
        <mxCell id="-SwOJ4ZzwDQcredPTqo0-11" value="Send&lt;br&gt;Message" style="text;html=1;align=center;verticalAlign=middle;whiteSpace=wrap;rounded=0;" vertex="1" parent="-SwOJ4ZzwDQcredPTqo0-1">
          <mxGeometry x="177" y="256" width="60" height="30" as="geometry" />
        </mxCell>
        <mxCell id="-SwOJ4ZzwDQcredPTqo0-21" value="" style="line;strokeWidth=2;direction=south;html=1;dashed=1;fillColor=#ffe6cc;strokeColor=#d79b00;" vertex="1" parent="-SwOJ4ZzwDQcredPTqo0-1">
          <mxGeometry x="270" y="60" width="10" height="410" as="geometry" />
        </mxCell>
        <mxCell id="-SwOJ4ZzwDQcredPTqo0-22" value="" style="line;strokeWidth=2;direction=south;html=1;dashed=1;fillColor=#ffe6cc;strokeColor=#d79b00;" vertex="1" parent="-SwOJ4ZzwDQcredPTqo0-1">
          <mxGeometry x="433" y="60" width="10" height="410" as="geometry" />
        </mxCell>
        <mxCell id="-SwOJ4ZzwDQcredPTqo0-37" value="" style="sketch=0;points=[[0,0,0],[0.25,0,0],[0.5,0,0],[0.75,0,0],[1,0,0],[0,1,0],[0.25,1,0],[0.5,1,0],[0.75,1,0],[1,1,0],[0,0.25,0],[0,0.5,0],[0,0.75,0],[1,0.25,0],[1,0.5,0],[1,0.75,0]];outlineConnect=0;fontColor=#232F3E;fillColor=#E7157B;strokeColor=#ffffff;dashed=0;verticalLabelPosition=bottom;verticalAlign=top;align=center;html=1;fontSize=12;fontStyle=0;aspect=fixed;shape=mxgraph.aws4.resourceIcon;resIcon=mxgraph.aws4.api_gateway;" vertex="1" parent="-SwOJ4ZzwDQcredPTqo0-1">
          <mxGeometry x="80" y="248" width="78" height="78" as="geometry" />
        </mxCell>
        <mxCell id="-SwOJ4ZzwDQcredPTqo0-41" style="edgeStyle=orthogonalEdgeStyle;rounded=0;orthogonalLoop=1;jettySize=auto;html=1;" edge="1" parent="-SwOJ4ZzwDQcredPTqo0-1" source="-SwOJ4ZzwDQcredPTqo0-39" target="-SwOJ4ZzwDQcredPTqo0-40">
          <mxGeometry relative="1" as="geometry" />
        </mxCell>
        <mxCell id="-SwOJ4ZzwDQcredPTqo0-39" value="SQS Queue FIFO" style="sketch=0;outlineConnect=0;fontColor=#232F3E;gradientColor=none;fillColor=#E7157B;strokeColor=none;dashed=0;verticalLabelPosition=bottom;verticalAlign=top;align=center;html=1;fontSize=12;fontStyle=0;aspect=fixed;pointerEvents=1;shape=mxgraph.aws4.queue;" vertex="1" parent="-SwOJ4ZzwDQcredPTqo0-1">
          <mxGeometry x="315" y="262.5" width="78" height="47" as="geometry" />
        </mxCell>
        <mxCell id="-SwOJ4ZzwDQcredPTqo0-40" value="Lmbda" style="sketch=0;outlineConnect=0;fontColor=#232F3E;gradientColor=none;fillColor=#ED7100;strokeColor=none;dashed=0;verticalLabelPosition=bottom;verticalAlign=top;align=center;html=1;fontSize=12;fontStyle=0;aspect=fixed;pointerEvents=1;shape=mxgraph.aws4.lambda_function;" vertex="1" parent="-SwOJ4ZzwDQcredPTqo0-1">
          <mxGeometry x="540" y="262" width="48" height="48" as="geometry" />
        </mxCell>
        <mxCell id="-SwOJ4ZzwDQcredPTqo0-42" value="3" style="ellipse;whiteSpace=wrap;html=1;aspect=fixed;rotation=0;gradientColor=#223548;strokeColor=none;gradientDirection=east;fillColor=#5b738b;rounded=0;pointerEvents=0;fontFamily=Helvetica;fontSize=16;fontColor=#FFFFFF;spacingTop=4;spacingBottom=4;spacingLeft=4;spacingRight=4;points=[];fontStyle=1" vertex="1" parent="-SwOJ4ZzwDQcredPTqo0-1">
          <mxGeometry x="177" y="296" width="25" height="25" as="geometry" />
        </mxCell>
        <mxCell id="-SwOJ4ZzwDQcredPTqo0-43" value="2" style="ellipse;whiteSpace=wrap;html=1;aspect=fixed;rotation=0;gradientColor=#223548;strokeColor=none;gradientDirection=east;fillColor=#5b738b;rounded=0;pointerEvents=0;fontFamily=Helvetica;fontSize=16;fontColor=#FFFFFF;spacingTop=4;spacingBottom=4;spacingLeft=4;spacingRight=4;points=[];fontStyle=1" vertex="1" parent="-SwOJ4ZzwDQcredPTqo0-1">
          <mxGeometry x="220" y="296" width="25" height="25" as="geometry" />
        </mxCell>
        <mxCell id="-SwOJ4ZzwDQcredPTqo0-44" value="1" style="ellipse;whiteSpace=wrap;html=1;aspect=fixed;rotation=0;gradientColor=#223548;strokeColor=none;gradientDirection=east;fillColor=#5b738b;rounded=0;pointerEvents=0;fontFamily=Helvetica;fontSize=16;fontColor=#FFFFFF;spacingTop=4;spacingBottom=4;spacingLeft=4;spacingRight=4;points=[];fontStyle=1" vertex="1" parent="-SwOJ4ZzwDQcredPTqo0-1">
          <mxGeometry x="262.5" y="296" width="25" height="25" as="geometry" />
        </mxCell>
        <mxCell id="-SwOJ4ZzwDQcredPTqo0-48" value="3" style="ellipse;whiteSpace=wrap;html=1;aspect=fixed;rotation=0;gradientColor=#223548;strokeColor=none;gradientDirection=east;fillColor=#5b738b;rounded=0;pointerEvents=0;fontFamily=Helvetica;fontSize=16;fontColor=#FFFFFF;spacingTop=4;spacingBottom=4;spacingLeft=4;spacingRight=4;points=[];fontStyle=1" vertex="1" parent="-SwOJ4ZzwDQcredPTqo0-1">
          <mxGeometry x="409.25" y="296" width="25" height="25" as="geometry" />
        </mxCell>
        <mxCell id="-SwOJ4ZzwDQcredPTqo0-49" value="2" style="ellipse;whiteSpace=wrap;html=1;aspect=fixed;rotation=0;gradientColor=#223548;strokeColor=none;gradientDirection=east;fillColor=#5b738b;rounded=0;pointerEvents=0;fontFamily=Helvetica;fontSize=16;fontColor=#FFFFFF;spacingTop=4;spacingBottom=4;spacingLeft=4;spacingRight=4;points=[];fontStyle=1" vertex="1" parent="-SwOJ4ZzwDQcredPTqo0-1">
          <mxGeometry x="452.25" y="296" width="25" height="25" as="geometry" />
        </mxCell>
        <mxCell id="-SwOJ4ZzwDQcredPTqo0-50" value="1" style="ellipse;whiteSpace=wrap;html=1;aspect=fixed;rotation=0;gradientColor=#223548;strokeColor=none;gradientDirection=east;fillColor=#5b738b;rounded=0;pointerEvents=0;fontFamily=Helvetica;fontSize=16;fontColor=#FFFFFF;spacingTop=4;spacingBottom=4;spacingLeft=4;spacingRight=4;points=[];fontStyle=1" vertex="1" parent="-SwOJ4ZzwDQcredPTqo0-1">
          <mxGeometry x="494.75" y="296" width="25" height="25" as="geometry" />
        </mxCell>
        <mxCell id="-SwOJ4ZzwDQcredPTqo0-36" value="Web" style="outlineConnect=0;dashed=0;verticalLabelPosition=bottom;verticalAlign=top;align=center;html=1;shape=mxgraph.aws3.management_console;fillColor=#D2D3D3;gradientColor=none;" vertex="1" parent="1">
          <mxGeometry x="30" y="295.5" width="63" height="63" as="geometry" />
        </mxCell>
        <mxCell id="-SwOJ4ZzwDQcredPTqo0-38" style="edgeStyle=orthogonalEdgeStyle;rounded=0;orthogonalLoop=1;jettySize=auto;html=1;entryX=0;entryY=0.5;entryDx=0;entryDy=0;entryPerimeter=0;" edge="1" parent="1" source="-SwOJ4ZzwDQcredPTqo0-36" target="-SwOJ4ZzwDQcredPTqo0-37">
          <mxGeometry relative="1" as="geometry" />
        </mxCell>
      </root>
    </mxGraphModel>
  </diagram>
</mxfile>
